<svg version="1.1" xmlns="http://www.w3.org/2000/svg" viewBox="0 0 856 1227.5" width="856" height="1227.5">
  <!-- svg-source:excalidraw -->
  
  <defs>
    <style>
      @font-face {
        font-family: "Virgil";
        src: url("https://excalidraw.com/Virgil.woff2");
      }
      @font-face {
        font-family: "Cascadia";
        src: url("https://excalidraw.com/Cascadia.woff2");
      }
    </style>
  </defs>
  <rect x="0" y="0" width="856" height="1227.5" fill="#ffffff"></rect><g stroke-linecap="round" transform="translate(10 623.5) rotate(0 153 126)"><path d="M0.33 -1.73 C94.29 6.24, 185.6 1.54, 307.63 0.1 M1.04 1.38 C64.74 1.79, 130.96 -0.36, 306.8 -0.35 M306.92 2.91 C303.52 52.3, 303.42 107.74, 305.74 253.03 M304.7 0.44 C309.61 83.85, 309.06 171.38, 307.57 252.65 M308 252.45 C225.28 252.7, 148.49 248.95, -0.52 251.01 M307.38 253.23 C213.31 255.17, 117.49 255.82, 1.08 250.74 M0.6 249.16 C-4.51 198.38, -3.69 145.51, 0.72 1.95 M-0.29 251.93 C-2.52 163.08, -3.31 72.18, -1.58 1.14" stroke="#000000" stroke-width="1" fill="none"></path></g><g stroke-linecap="round" transform="translate(424.5 359.5) rotate(0 88.5 77)"><path d="M25.22 23.25 C25.22 23.25, 25.22 23.25, 25.22 23.25 M25.22 23.25 C25.22 23.25, 25.22 23.25, 25.22 23.25 M6.41 50.33 C14.57 44.84, 16.84 36.23, 33.65 17.38 M7.24 49.6 C13.66 43.02, 18.64 35.89, 35.34 17.29 M7.57 59.1 C21.04 41.07, 31.28 28.16, 44.17 12.25 M6.5 58.04 C21.12 41.21, 35.63 24.69, 45.5 12.41 M4.91 66.49 C22.42 42.69, 40.24 22.21, 55.98 6.36 M4.97 64.35 C19.8 48.36, 33.65 31.92, 56.83 6.65 M5.67 71.26 C26.32 48.78, 49.08 22.77, 59.01 6.56 M3.38 71.35 C20.23 52.08, 38.23 31.57, 59.98 8.81 M2.7 82.13 C23.58 54.89, 47.44 27.89, 64.47 5.1 M2.07 80.73 C26.36 51.22, 52.07 23.22, 64.96 6.96 M3.97 84.77 C20.71 63.09, 38.87 42.06, 72.91 5.7 M2.01 85.52 C21.78 62.53, 41.81 42.31, 72.69 5.97 M1.72 88.85 C21.76 71.93, 38.58 53, 80.31 5.36 M3.55 90.51 C25.49 64.01, 48.75 38.96, 78.69 4.69 M3.93 96.75 C21.68 75.35, 39.62 51.43, 83.05 3.73 M5.45 94.48 C34.98 61.08, 63.16 27.66, 85.61 2.83 M8.01 100.79 C37.38 61.31, 71.37 24.68, 91.5 -0.78 M6.13 98.8 C34.42 66.58, 62.19 33.89, 92.4 0.46 M9.02 104.28 C37.62 71.56, 67.3 37.4, 95.84 2.69 M7.45 103.98 C38.36 68.59, 67.64 35.69, 97.65 1.15 M10.07 109.96 C34.12 80.98, 56.8 49.44, 103.37 3.47 M8.67 109.48 C35.77 78.72, 61.29 47.06, 102.49 1.45 M11.18 112.34 C32.99 87.27, 54.51 61.11, 104.35 3.56 M10.87 113.53 C41.19 74.59, 73.88 38.08, 106 2.48 M12.97 116.58 C46.3 74.38, 82.52 37.19, 111.59 3.5 M14.23 115.44 C45.13 78.88, 77.72 41.74, 110.33 5.29 M17.58 119.37 C43.87 86.42, 67.6 57.56, 116.06 4.72 M16.47 117.91 C52.55 78.16, 88.65 37.39, 113.93 6.6 M19.66 120.04 C55.66 76.4, 95.63 34.54, 118.5 7.94 M19.44 121.61 C54.8 80.75, 90.56 39.73, 118.64 6.67 M22.65 126.24 C57.79 84.81, 97.17 41.73, 125.08 7.51 M20.93 124.21 C46.1 94.7, 70.84 65.55, 123 7.09 M24.38 125.96 C61.98 82.63, 102.21 35.22, 127.65 9.08 M23.86 127.97 C63.39 84.75, 103.07 39.75, 127.99 7.82 M28.06 131.26 C52.96 97.92, 82.05 65.88, 132.1 11.71 M26.81 130.78 C50.84 102.34, 75.43 74.24, 132.99 10.82 M31.21 134.59 C66.53 92.7, 101.83 50.55, 135.22 12.2 M30.54 134.01 C61.33 94.88, 93.4 58.47, 134.22 11.78 M32.01 137.18 C66.83 97.8, 101.45 56.16, 137.72 14.54 M31.87 136.26 C53.78 112.38, 74.94 88.4, 137.28 14.97 M34.15 141.4 C58.74 113.6, 78.3 87.96, 139.85 16.21 M36.12 139.25 C62.55 108.04, 87.97 78.41, 142.34 17.06 M39.23 140.91 C78.89 94.9, 116.07 50.5, 143.04 20.88 M39.05 141.31 C68.46 107.96, 95.64 75.94, 145.36 19.19 M44.36 141.29 C83.73 96.33, 122.85 51.14, 150.13 23.48 M44.05 141.49 C83.13 95.86, 120.57 51.68, 147.9 21.5 M47.09 144.35 C68.79 120.62, 91.06 95.13, 151.75 22.59 M46.59 143.37 C83.28 101.86, 119.41 60.37, 151.02 24.96 M50.35 145.59 C70.02 120.96, 91.65 96.16, 154.54 25.57 M50.77 145.83 C74.69 120.03, 96.02 93.48, 155.06 27.94 M56.15 146.79 C81.88 116.63, 107.68 86.44, 158.79 29.18 M54.56 147.18 C78.39 120.57, 102.76 94.81, 158.89 28.26 M57.12 149.86 C94.11 105.25, 132.69 60.26, 158.79 33.72 M58.91 148.4 C82.26 122.35, 104.49 94.53, 159.81 32.77 M62.2 149.48 C100.16 107.91, 136.36 64.9, 163.01 35.63 M62.96 151.25 C90.59 117.53, 118.66 85.74, 161.24 35.39 M66.23 153.78 C94.18 119.18, 121.23 91.2, 165.16 39.63 M67.27 152.34 C104.73 107.15, 144.01 63.79, 165.41 40.67 M70.92 152.61 C95.95 124.5, 120.81 95.3, 167.1 45.34 M72.28 152.87 C103.71 116.21, 135.45 80.18, 165.78 43.88 M78.46 150.75 C95.32 129.53, 115.84 106.93, 168.47 47.4 M77.54 151.31 C98.18 129.62, 117.96 105.67, 168.28 46.57 M81.21 152.03 C101.8 130.43, 120.32 107.86, 170.33 50.38 M82.92 152.85 C105.02 127.86, 126.61 104.48, 170.48 50.83 M87.88 154.63 C110.1 127.98, 128.19 104.99, 172.78 52.85 M88.38 152.3 C115.64 120.44, 143.54 86.68, 172.77 54.95 M92.58 152.56 C123.52 119.37, 152.7 84.3, 176.56 59.54 M92.55 152.82 C115.2 126.88, 137.78 101.47, 175.54 58.87 M99.08 153.2 C123.8 124.6, 147.62 93.67, 176.73 62.47 M96.59 153.05 C120.1 125.06, 144.9 98.42, 176.45 62.83 M101.07 154.95 C119.13 133.17, 137.22 112.59, 174.9 69.55 M103.99 154.15 C126.58 124.66, 150.49 98.19, 176.1 69.4 M110.48 148.88 C131.5 123.75, 153.48 100.22, 176.2 74.46 M110.48 148.82 C128.26 131.48, 143.81 113.81, 176.76 74.77 M118.52 148.59 C132.95 132.01, 143.13 116.91, 174.28 81.55 M118.57 146.72 C138.57 124.31, 159.02 101.09, 176.75 81.1 M128.51 146.09 C138.89 128.34, 152.55 111.41, 176.91 85.93 M126.01 143.67 C143.52 123.75, 159.56 104.09, 175.69 88.07 M134.88 143.4 C145.65 130.23, 155.03 117.78, 171.64 98.65 M134.33 142.77 C144.99 128.51, 155.93 117.24, 171.73 99.45 M140.85 141.22 C147.29 132.39, 156.35 123.52, 166.6 109.98 M140.08 142.47 C149.56 129.35, 160.84 117.63, 167.88 109.88" stroke="#15aabf" stroke-width="0.5" fill="none"></path><path d="M56.53 5.73 C66.38 0.93, 79.48 -1.2, 91.44 -0.87 C103.4 -0.53, 117.48 2.97, 128.28 7.74 C139.09 12.5, 148.68 19.47, 156.26 27.72 C163.83 35.98, 170.51 47.27, 173.73 57.26 C176.94 67.25, 177.17 77.41, 175.54 87.67 C173.9 97.93, 170.34 109.99, 163.93 118.81 C157.52 127.64, 147.21 135, 137.07 140.63 C126.93 146.26, 114.98 150.88, 103.1 152.6 C91.21 154.33, 77.3 153.46, 65.76 150.98 C54.23 148.5, 43.07 144.05, 33.89 137.71 C24.71 131.36, 16.13 122.35, 10.68 112.93 C5.22 103.5, 1.94 91.8, 1.15 81.15 C0.36 70.51, 1.9 58.73, 5.94 49.05 C9.97 39.37, 14.39 31.06, 25.36 23.09 C36.33 15.12, 61.37 4.76, 71.77 1.23 C82.17 -2.3, 87.47 0.78, 87.76 1.9 M102.23 0.14 C113.9 0.29, 125.89 5.47, 135.87 10.95 C145.84 16.44, 155.18 24.39, 162.08 33.04 C168.98 41.68, 175.09 52.24, 177.25 62.84 C179.41 73.44, 178.47 86.09, 175.05 96.63 C171.63 107.18, 164.42 117.88, 156.72 126.08 C149.02 134.28, 139.18 141.01, 128.84 145.83 C118.5 150.66, 106.62 154.41, 94.69 155.04 C82.76 155.67, 68.38 153.43, 57.26 149.62 C46.15 145.81, 36.61 139.36, 28 132.18 C19.4 125, 10.3 116.09, 5.63 106.53 C0.95 96.97, -0.47 85.34, -0.02 74.81 C0.42 64.29, 3.15 53.1, 8.3 43.38 C13.44 33.66, 21.23 23.38, 30.87 16.49 C40.52 9.6, 54.59 4.87, 66.17 2.04 C77.74 -0.79, 94.47 -0.57, 100.33 -0.51 C106.18 -0.45, 101.44 0.76, 101.27 2.39" stroke="#0b7285" stroke-width="1" fill="none"></path></g><g transform="translate(439.5 400.5) rotate(0 73.5 32)"><text x="73.5" y="25" font-family="Virgil, Segoe UI Emoji" font-size="28px" fill="#0b7285" text-anchor="middle" style="white-space: pre;" direction="ltr">Sytem Clock</text><text x="73.5" y="57" font-family="Virgil, Segoe UI Emoji" font-size="28px" fill="#0b7285" text-anchor="middle" style="white-space: pre;" direction="ltr">Manager</text></g><g stroke-linecap="round" transform="translate(540 628.5) rotate(0 153 126)"><path d="M0.57 -0.84 C92.72 2.94, 178.06 0.93, 304.97 0.63 M0.51 -1.39 C107.34 -0.53, 215.87 -0.13, 307.27 0.23 M307.73 -1 C304.28 61.43, 302.79 117.57, 304.95 254.23 M307.42 1.07 C304.01 84.51, 304.8 168.38, 306.32 252.97 M307.57 249.81 C214.65 248.78, 126.7 247.09, 0.33 250.42 M306.67 252.83 C233.48 252.97, 160.83 253.47, 1.28 252.11 M0.99 251.8 C-1.7 188.71, -1.67 127.93, 2.93 -0.16 M-1.09 253.31 C-2.72 170.4, -5.37 84.35, -0.52 1.42" stroke="#000000" stroke-width="1" fill="none"></path></g><g stroke-linecap="round" transform="translate(162.5 635.5) rotate(0 65.5 54.5)"><path d="M-1.22 0.84 L129.76 -1.45 L131.12 107.69 L0.65 110.76" stroke="none" stroke-width="0" fill="#ced4da"></path><path d="M-0.18 -1.25 C31.5 -2.83, 60.74 0.98, 129.75 0.27 M-0.25 0.34 C29.58 -0.02, 59.63 0.1, 131.59 -0.46 M132.04 1.54 C128.65 26.5, 130.63 50.83, 130.36 110.24 M130.5 -0.12 C132.6 36.03, 131.09 72.77, 131.49 109.65 M131.48 107.03 C79.88 108.47, 25.97 109.89, -0.8 109.93 M131.8 109.88 C100.48 107.08, 70.04 109.03, -0.73 108.22 M1.36 109.48 C-0.97 72.08, 1.09 34.36, 1.53 0.63 M-0.07 108.3 C-1.03 80.45, -1.08 52.84, -0.45 -0.14" stroke="#000000" stroke-width="1" fill="none"></path></g><g transform="translate(191 651) rotate(0 37 23)"><text x="37" y="18" font-family="Virgil, Segoe UI Emoji" font-size="20px" fill="#000000" text-anchor="middle" style="white-space: pre;" direction="ltr">Event </text><text x="37" y="41" font-family="Virgil, Segoe UI Emoji" font-size="20px" fill="#000000" text-anchor="middle" style="white-space: pre;" direction="ltr">Manager</text></g><g stroke-linecap="round" transform="translate(106.5 756.5) rotate(0 65.5 54.5)"><path d="M-1.59 1.43 L129.18 1.5 L131.69 107.13 L-0.8 108" stroke="none" stroke-width="0" fill="#ced4da"></path><path d="M0.62 1.54 C34.96 -1.82, 70.5 -0.63, 131.95 -1.3 M-0.41 -0.64 C40.08 -0.95, 81.74 -0.13, 131.32 0.4 M132.48 0.38 C129.5 23.9, 131.66 50.18, 132.77 110.84 M130.06 0.57 C131.55 23.53, 132.93 47.04, 130.01 108.23 M132.46 109.8 C93.88 108.22, 55.46 111.8, -0.6 110.24 M131.79 108.23 C91.32 109.05, 53.28 109.06, -0.24 109.89 M-1.37 108.38 C-0.17 77.86, -2.77 49.4, 0.45 0.9 M0.98 108.57 C0.28 72.73, 0.55 37, -0.34 -0.71" stroke="#000000" stroke-width="1" fill="none"></path></g><g transform="translate(135 785) rotate(0 37 23)"><text x="37" y="18" font-family="Virgil, Segoe UI Emoji" font-size="20px" fill="#000000" text-anchor="middle" style="white-space: pre;" direction="ltr">I/O </text><text x="37" y="41" font-family="Virgil, Segoe UI Emoji" font-size="20px" fill="#000000" text-anchor="middle" style="white-space: pre;" direction="ltr">Manager</text></g><g stroke-linecap="round" transform="translate(553.5 641.5) rotate(0 65.5 54.5)"><path d="M-1.87 -0.8 L130 0.02 L131.32 109.43 L-1.11 107.5" stroke="none" stroke-width="0" fill="#ced4da"></path><path d="M-0.55 0.95 C33.56 0.73, 69.63 0.53, 130.19 -1.28 M-0.12 0.32 C31.16 -1.04, 60.68 -0.52, 131.74 0.19 M130.8 1.77 C132.14 27.79, 132.26 57.12, 129.12 110.15 M130.57 -0.99 C130.01 27.01, 131.51 54.86, 131.73 109.4 M132.91 108.4 C84.97 109.75, 38.03 110.72, 1.58 107.45 M130.43 108.76 C97.37 109.98, 62.7 110.17, -0.69 108.69 M0.99 109.45 C1.36 73.46, -0.41 35.56, 1.96 -0.86 M0.95 108.66 C-0.92 77.6, 0.5 46.88, 0.75 0.34" stroke="#000000" stroke-width="1" fill="none"></path></g><g transform="translate(583 683) rotate(0 36 11.5)"><text x="36" y="18" font-family="Virgil, Segoe UI Emoji" font-size="20px" fill="#000000" text-anchor="middle" style="white-space: pre;" direction="ltr">Mutexes</text></g><g stroke-linecap="round" transform="translate(17.5 634.5) rotate(0 65.5 54.5)"><path d="M0.43 -1.11 L129.5 0.27 L130 107.89 L-0.73 107.18" stroke="none" stroke-width="0" fill="#ced4da"></path><path d="M0.03 -0.81 C29.51 -1.25, 59.73 0.59, 130.77 0.64 M-0.17 0.74 C44.79 0.78, 88.56 1.86, 130.9 0.88 M129.25 -1.88 C131.25 41.68, 129.7 87.14, 130.14 107.02 M131.69 0.73 C131.32 24.9, 130.08 49.16, 131.95 108.7 M131.97 110.58 C82 109.3, 34.93 111.86, -1.15 108.53 M130.97 108.31 C79.67 110.31, 28.53 109.01, 0.49 109.22 M-0.99 110.96 C-1.24 70.99, 0.02 33.9, 1.9 -0.68 M-0.91 109.75 C1.21 83.06, 0.46 58.49, 0.01 0.16" stroke="#000000" stroke-width="1" fill="none"></path></g><g transform="translate(46 663) rotate(0 37 23)"><text x="37" y="18" font-family="Virgil, Segoe UI Emoji" font-size="20px" fill="#000000" text-anchor="middle" style="white-space: pre;" direction="ltr">Alarms </text><text x="37" y="41" font-family="Virgil, Segoe UI Emoji" font-size="20px" fill="#000000" text-anchor="middle" style="white-space: pre;" direction="ltr">Manager</text></g><g stroke-linecap="round" transform="translate(699.5 638.5) rotate(0 65.5 54.5)"><path d="M-1.11 -0.73 L129.18 -0.9 L129.68 107.57 L-1.8 108.97" stroke="none" stroke-width="0" fill="#ced4da"></path><path d="M0.54 -0.23 C31.54 2.03, 60.42 -0.43, 130.66 1.48 M0.78 -0.1 C42.65 1.76, 82.71 1.82, 130.13 -0.94 M132.72 -0.86 C128.46 37.41, 130.29 79.38, 132.37 110.46 M131.57 0.95 C131.36 37.69, 131.66 74.93, 131.49 109.79 M132.83 107.85 C101.37 110.02, 72.24 109.74, -0.06 107.63 M130.02 109.49 C95.97 108.9, 60.85 108.01, -0.49 109.98 M0.16 110.9 C-0.47 79.6, -1.38 54.45, -1.82 1.5 M-0.5 109.01 C1.18 72.75, 0.46 35.33, 0.13 -0.5" stroke="#000000" stroke-width="1" fill="none"></path></g><g transform="translate(735.5 680) rotate(0 29.5 11.5)"><text x="29.5" y="18" font-family="Virgil, Segoe UI Emoji" font-size="20px" fill="#000000" text-anchor="middle" style="white-space: pre;" direction="ltr">Timers</text></g><g stroke-linecap="round" transform="translate(699.5 760.5) rotate(0 65.5 54.5)"><path d="M-1.43 -1.8 L130.97 -0.12 L132.66 109.4 L-0.07 107.03" stroke="none" stroke-width="0" fill="#ced4da"></path><path d="M-1.65 -0.34 C44.99 1.28, 86.41 -0.38, 132.56 -0.2 M0.98 -0.87 C49.94 1.65, 101.25 0.87, 131.86 -0.43 M132.47 1.37 C131.62 22.73, 131.38 42.18, 132.15 110.91 M131.79 0.49 C132.47 28.66, 131.31 58.28, 131.92 108.43 M132.51 108.94 C93.41 108.09, 59.21 107.87, -1.95 109.99 M130.56 108.51 C89.76 109.02, 46.36 109.65, 0.08 109.95 M1.43 107.18 C2.27 80.69, -1.1 50.2, -1 0.02 M-0.75 109.13 C-0.73 74.01, -0.6 39.23, -0.45 -0.66" stroke="#000000" stroke-width="1" fill="none"></path></g><g transform="translate(731 802) rotate(0 34 11.5)"><text x="34" y="18" font-family="Virgil, Segoe UI Emoji" font-size="20px" fill="#000000" text-anchor="middle" style="white-space: pre;" direction="ltr">Barriers</text></g><g stroke-linecap="round" transform="translate(435.5 11.5) rotate(0 65.5 54.5)"><path d="M0 0 C0 0, 0 0, 0 0 M0 0 C0 0, 0 0, 0 0 M-0.38 6.74 C1.13 4.27, 3.31 2.37, 5.37 1.09 M0.01 6.72 C0.61 4.95, 2.26 3.42, 5.01 0.27 M-0.31 13.2 C1.28 9.79, 3.72 6.9, 9.56 -0.69 M0.34 11.78 C2.31 8.7, 5.1 5.15, 9.95 0.36 M1.58 17.58 C3.08 13.54, 8.3 11.05, 15.82 1.33 M0.58 19.36 C6.54 11.09, 12.16 3.45, 16.2 0.93 M0.35 23.12 C6.97 14.32, 15.54 8.02, 22.35 1.5 M0.42 23.65 C8.59 15.11, 15.36 6.55, 22.12 0.67 M-1.35 30.79 C9.62 19.89, 15.52 10.26, 25.2 -0.14 M-0.95 29.96 C7.5 22.03, 13.8 13.33, 26.26 0.45 M-1.63 36.43 C11.51 24.27, 22.98 12.96, 32.05 1.41 M-0.37 37.64 C11.95 22.48, 24.25 7.69, 31.19 0.07 M1.13 40.7 C11.54 30.81, 21.67 16.82, 35.35 1.35 M1.02 43.51 C6.59 33.86, 15.06 25.55, 37.75 -0.38 M0.97 50.72 C13.41 35.22, 24.15 19.67, 44.17 -1.59 M-0.49 49.48 C10.85 35.16, 22.79 22.49, 42.01 0.83 M-0.44 54.11 C8.88 41.97, 20.71 33.93, 45.6 0.29 M1.13 54.57 C15.97 35.15, 32.29 16.43, 47.7 0.38 M-0.43 60.49 C16.05 41.94, 28.48 25.49, 52.58 0.96 M0.05 60.24 C21.73 37.32, 41.16 11.96, 53.1 -0.83 M-0.11 67.49 C12.31 52.52, 26.28 38.16, 57.33 2.12 M-1.13 66.46 C14.67 50.73, 29.55 33.94, 57.58 -0.3 M0.31 74.45 C14.93 54.55, 29.41 36.86, 63.19 -1.52 M0.36 73.26 C20.65 48.19, 40.58 24.71, 64.43 -0.68 M-1.89 80 C24.94 50.71, 49.69 22.65, 70 -0.78 M-0.85 80.3 C15.27 59.68, 32.81 40.6, 69.36 -0.41 M-0.62 84.21 C16.62 68.43, 31.86 48.01, 73.98 1.31 M0.02 84.93 C20.98 62.06, 40.75 38.37, 73.42 -0.44 M0.29 89.98 C16.9 71.63, 35.33 49.59, 81.11 -1.08 M0.36 91.49 C24.24 65.27, 49.04 36.46, 79.45 1.1 M-1.6 97.1 C30.12 63.55, 59.57 27.24, 87 0.74 M0.42 97.41 C31.75 61.21, 63.74 25.62, 84.99 0.19 M1.23 103.96 C26.23 69.76, 54.27 40.55, 90.25 -0.55 M1.04 102.71 C34.82 63.82, 69.1 23.73, 90.75 0.28 M-0.35 108.36 C21.11 84.32, 43.77 60.8, 96.35 0.99 M0.04 108.89 C25.73 82.05, 51.6 53.45, 95.52 -0.46 M5.02 111.39 C39.12 70.51, 74.74 31.68, 99.04 2.02 M6.44 108.63 C29.88 83.08, 53.71 55.27, 100.63 0.23 M10.06 108.62 C38.73 76.37, 67.76 39.7, 108.2 -0.78 M10.4 109.02 C37.53 80.55, 64.79 49.18, 106.85 -0.02 M14.6 108.66 C48.04 71.75, 79.47 36.55, 111.2 -1.26 M16.04 109.99 C41.27 81.25, 65.56 52.63, 110.9 -0.9 M20.23 108.57 C44.53 82.73, 65.7 60.67, 116.14 2.27 M21.12 109.65 C45.14 82.54, 69.64 55.31, 115.64 0.66 M27.68 111.18 C54.86 76.36, 82.1 47.18, 120.48 0.69 M27.52 109.61 C63.18 69.36, 100.28 26.85, 121.87 0.04 M32.68 110.52 C63.29 73.53, 96.85 35.46, 127.75 -0.31 M32.12 108.29 C66.16 71.15, 98.73 33.13, 125.98 0.5 M39.32 109.21 C62.34 77.42, 89.78 48.7, 130.06 2.62 M37.29 110.27 C73.79 67.07, 111.46 24.73, 131.65 0 M43.97 107.75 C77.61 67.88, 111.65 29.19, 130.85 6.97 M43.79 109.53 C78.8 68.76, 113.27 27.8, 131.57 7.51 M48.62 109.98 C65.94 88.33, 84.14 67.3, 132.62 12.04 M47.22 108.82 C69.12 85.51, 91.02 61.42, 132.28 12.77 M52.76 108.42 C71.12 87.28, 90.92 65.04, 133.16 19.53 M52.98 108.96 C81.21 78.28, 108.91 44.53, 131.43 18.67 M58.75 109.65 C78.19 83.76, 99.69 62.68, 133.98 25.51 M58.67 110.13 C83.55 79.72, 110.72 48.43, 131.33 25.29 M63.08 108.43 C84.85 85.64, 104.5 60.2, 133.75 29.92 M64.38 109.96 C84.13 86.98, 102.57 64.39, 131.36 31.22 M68.95 109.32 C85.98 87.92, 107.07 67.19, 131.47 38.59 M68.44 109.09 C85.44 88.9, 103.33 68.95, 132.29 37.6 M75 108.33 C92.54 87.93, 112.04 66.32, 131.17 44.93 M75.1 108.7 C92.4 87.73, 111.83 67.3, 131.99 43.7 M78.5 111.02 C98.42 90.87, 114.45 72.49, 130.5 51.54 M80.82 108.62 C100.46 86.11, 120.15 63.68, 131.13 50.5 M84.7 109.89 C97.75 95.75, 110.3 81.82, 132.02 56.29 M84.74 108.62 C100.68 89.53, 117.14 71.27, 131.47 54.71 M90.76 109.72 C99.65 98.27, 109.55 86.8, 132.54 61.78 M91.56 109.7 C102.82 95.87, 116.24 81.11, 132.31 62.11 M95.07 109.03 C107.15 94.85, 121.31 80.67, 130.33 69.4 M96.04 109.44 C106.88 96.84, 118.42 84.1, 130.73 67.61 M101.15 109.34 C106.72 102.76, 114.65 93.86, 133.79 72.96 M101.88 109.3 C113.59 95.25, 124.88 82.55, 131.39 72.81 M107.05 108.64 C113.68 97.42, 125.36 86.59, 130.12 80.36 M106.21 109.93 C114.23 100.92, 120.83 91.83, 132.15 79.55 M113.16 110.71 C115.4 102.23, 123.12 95.74, 132.52 87.64 M112.47 108.46 C117.04 104.92, 120.95 99.35, 132.43 86 M115.66 110.53 C120.61 103.87, 125.07 102.04, 133.55 92.45 M116.92 109.86 C120.37 105.85, 123.94 99.94, 131.61 91.95 M122.37 108.07 C125.99 107.57, 126.05 103.99, 132.17 99.61 M121.78 108.48 C124.6 106.79, 126.5 104.46, 131.4 98.78 M126.93 110.16 C128.86 107.36, 130.58 104.81, 131.84 104.52 M127.75 109.67 C128.84 107.98, 129.39 106.76, 131.71 103.95" stroke="#fa5252" stroke-width="0.5" fill="none"></path><path d="M-0.17 -1.88 C32.15 2.57, 67.01 2.37, 129.15 0.03 M0.95 0.45 C34.77 1.42, 69.11 1.14, 131.09 -0.45 M129.87 -1.85 C131.92 27.14, 131.94 55.88, 129.27 107.04 M131.14 -0.12 C131.08 33.3, 131.05 64.19, 130.78 108.85 M129.18 107.46 C89.79 106.93, 46.59 107.79, 0.83 110.6 M130.66 108.83 C94.35 108.86, 57.56 108.96, -0.87 109.99 M-1.79 109.51 C0.61 77.74, -1.92 47.72, -1.97 1.4 M-0.76 109.6 C1.61 82.08, 0.39 55.72, 0.31 -0.18" stroke="#c92a2a" stroke-width="1" fill="none"></path></g><g transform="translate(454.5 27) rotate(0 46.5 34.5)"><text x="46.5" y="18" font-family="Virgil, Segoe UI Emoji" font-size="20px" fill="#c92a2a" text-anchor="middle" style="white-space: pre;" direction="ltr">Platform </text><text x="46.5" y="41" font-family="Virgil, Segoe UI Emoji" font-size="20px" fill="#c92a2a" text-anchor="middle" style="white-space: pre;" direction="ltr">Dependent </text><text x="46.5" y="64" font-family="Virgil, Segoe UI Emoji" font-size="20px" fill="#c92a2a" text-anchor="middle" style="white-space: pre;" direction="ltr">Code</text></g><g stroke-linecap="round" transform="translate(336 226) rotate(0 86 73.5)"><path d="M10.99 36.05 C10.99 36.05, 10.99 36.05, 10.99 36.05 M10.99 36.05 C10.99 36.05, 10.99 36.05, 10.99 36.05 M7.87 45.27 C12.86 36.75, 20.78 28.73, 35.96 15.61 M6.89 46.36 C15.2 37.22, 23.13 28.22, 34.34 16.01 M2.68 55.57 C17.7 40.33, 29.34 28.11, 38.55 16.35 M3.9 57.62 C14.93 43.71, 26.25 31.34, 38.73 16.41 M0.05 64.38 C14.36 49.83, 29.07 33.21, 45.9 14.58 M1.48 65.22 C16.97 49.67, 31.34 32.68, 46.49 12.5 M2.52 73.22 C22.7 46.48, 42.3 23.06, 56.4 9.88 M1.26 71.61 C14.89 56.38, 30.05 40.72, 55.81 10.42 M2.66 78.01 C22.28 50.27, 42.98 28.9, 63.75 8.39 M2.11 76.98 C23.99 51.34, 44.42 27.93, 62.38 6.23 M1.33 80.22 C27.27 54.41, 53.02 24.55, 69.33 4.1 M1.92 82 C20.05 64.57, 35.32 44.88, 71.18 2.89 M4.05 88.19 C19.83 71.41, 34.6 52.88, 77.29 2.85 M3.3 86.69 C25.26 63.76, 45.52 39.03, 77.02 3.72 M6.12 90.84 C19.59 71.27, 38.62 54.37, 82.84 2.59 M4.22 91.67 C28.61 65.89, 50.95 38.72, 82.25 4.23 M4.22 99.22 C34.33 60.72, 65.3 27.55, 88.02 4.56 M5.05 97.3 C27.31 71.56, 49.84 47.55, 85.96 2.93 M7.56 101.92 C35.05 65.89, 66.9 34.88, 93.38 3.42 M7.05 100.67 C27.79 78.38, 45.96 55.75, 93.17 2.94 M10.88 102.2 C37.59 71.2, 70.35 34.89, 98.43 5.13 M10.93 104.25 C30.03 79.7, 51.03 53.79, 96.61 3.5 M12.16 105.85 C40.56 73.25, 70.27 42.67, 105.87 3.77 M11.91 107.32 C38.52 77.23, 64.8 46.84, 104.46 2.3 M13.62 110.32 C42.95 82.56, 66.44 51.63, 108.2 2.77 M14.24 110.69 C51.85 69.12, 89.68 26.76, 108.38 4.32 M16.18 112.35 C52.47 75.34, 85.05 35.59, 111.11 2.91 M16.97 113.88 C48.7 79.44, 79.16 46.45, 112.35 5.34 M17.75 119.58 C50.01 82.44, 82.51 49.08, 117.48 6.53 M19.83 118.26 C49.75 82.27, 79.18 48.89, 116.03 5.77 M23 122.95 C56.41 84.38, 89.02 42.01, 121.55 8.12 M20.31 121.08 C43.18 96.1, 65.51 71.74, 120.52 8.76 M25.01 124.52 C51.4 91.88, 82.46 61.53, 122.11 7.96 M24.83 124.8 C44.85 100.36, 65.98 75.82, 124.84 9.41 M25.72 127.95 C60.43 86.85, 99.2 44.93, 130.11 9.75 M26.59 127.11 C54.61 96.08, 83.31 63.87, 129.04 9.97 M31.55 128 C67.01 87.46, 101.67 46.17, 133.75 14.22 M30.64 128.1 C65.95 88.36, 99 49.51, 132.73 13.03 M35.9 130.76 C63.13 98.58, 89.73 64.38, 138.16 12.74 M33.79 131.91 C60.04 101.58, 83.55 73.13, 136.2 14.65 M38.03 131.96 C60.43 103.67, 83 77.18, 137.83 17.75 M36.98 132.7 C74.72 91.43, 111.77 49.04, 140.27 16.39 M40.25 134.6 C68.56 102.22, 96.61 71.56, 141.55 18.84 M39.85 135.85 C61.72 110.05, 84.71 84.04, 142.67 18.92 M43.5 138.63 C79.22 99.05, 116.29 58.87, 146.21 23.6 M43.82 137.11 C81.91 94.98, 117.3 53.1, 145.28 22.49 M49.19 141.74 C77.53 105.52, 105.79 72, 148.48 23.83 M47.29 139.05 C73.34 111.62, 98.53 83.1, 149.28 24.62 M51.46 140.82 C75.43 115.5, 97.99 85.94, 150.52 27.84 M51.44 142.03 C72.98 116.11, 97.1 88.83, 150.21 28.02 M54.93 143.75 C88.45 103.84, 124.9 62.47, 152.99 29.09 M55.28 143.58 C79.79 116.91, 102.52 89.94, 154.54 30.8 M60.46 142.87 C79.33 119.89, 102.02 95.83, 157.48 34.35 M60.99 143.39 C90.44 109.23, 120.27 75.96, 157.43 32.14 M64.78 144.02 C88.44 117.6, 112.21 89.32, 158.85 37.04 M64.88 143.97 C90.2 113.7, 115.65 84.34, 158.57 37.25 M68.26 145.73 C95.04 117.25, 118.57 89.87, 161.59 38.61 M68.67 145.36 C101.05 110.49, 133.85 72.84, 161.95 38.25 M74.53 144.78 C96.55 120.85, 121.47 94.69, 164.95 42.17 M74.51 146.26 C105.53 109.25, 135.87 73.56, 164.43 43.46 M79.65 145.89 C110.93 112.51, 140.33 76.2, 163.84 48.63 M79.59 147.3 C105.55 115.68, 132.29 84.66, 166.09 46.97 M84.35 146.54 C103.63 122.89, 123.83 99.87, 166.65 49.54 M83.82 147.42 C113.35 112.33, 141.69 79.51, 167.47 51.15 M90.51 143.38 C116.47 115.91, 138.43 87.61, 170.91 57.25 M91.76 145.8 C121.69 109.37, 152.98 74.64, 168.71 56.34 M97.51 145.61 C119.61 119.71, 143.83 91.47, 169.68 60.5 M96.39 144.88 C120.22 118.91, 143.81 92.22, 171.31 60.01 M103.89 142.83 C129.45 113.99, 154.95 82.31, 173.93 64.1 M102.22 143.69 C118.78 127.93, 132.43 109.05, 172 63.93 M109.12 141.92 C120.71 127.16, 134.63 113.8, 174.91 68.48 M108.47 142.34 C134.4 113.59, 159.43 84.46, 174.52 67.43 M114.58 139.67 C131.46 124.95, 144.53 106.95, 171.23 77.17 M115.57 142.22 C128.71 127.39, 140.25 112.05, 172.14 76.27 M120.03 140.68 C133.17 123.34, 148.65 109.65, 169.76 84.27 M120.93 141.43 C134.3 127.54, 147.21 111.2, 172.03 83.83 M131.75 133.62 C145.95 119.09, 159.84 101.18, 171.49 92.47 M130.67 134.64 C140.51 124.25, 150.94 113.34, 170.54 90.58 M143.33 127.82 C152.21 118.82, 159.47 108.41, 169.2 100.36 M141.7 129.19 C150.92 119.52, 159.24 109.68, 168.25 99.01 M21.86 122.71 C21.86 122.71, 21.86 122.71, 21.86 122.71 M21.86 122.71 C21.86 122.71, 21.86 122.71, 21.86 122.71 M46.59 138.13 C34.87 127.06, 20.73 116.75, 11.91 108.41 M46.03 138.15 C36.62 131.72, 27.41 121.96, 13.06 109.56 M53.03 139.01 C36.12 123.51, 20.04 110, 5.19 99.29 M51.49 137.63 C35.4 123.69, 19.17 108.24, 5.48 96.77 M58.28 140.4 C42.48 125.27, 29.62 112.68, 5.18 93.19 M58.92 139.47 C40.76 122.51, 19.97 106.96, 6.83 92.85 M66.72 142.22 C50.54 126.16, 34.68 111.82, 5.93 89.45 M67.36 141.26 C51.59 126.85, 35.27 113.77, 4.99 86.99 M72.59 143.02 C54.33 123.19, 32.23 103.82, 4.84 81.15 M73.93 142.63 C48.94 119.51, 24.76 99.08, 4.33 81.6 M85.23 145.52 C55.46 122.32, 29.16 95.12, 2.47 77.56 M84.43 146.35 C63.95 128.84, 43.72 110.78, 4.91 76.31 M91.02 146.47 C59.26 118.52, 26.34 90.85, 5.12 68.5 M90.79 145.8 C60.19 120.22, 31.26 94.09, 2.54 69.93 M94.75 143.27 C66.03 119.38, 41.06 94.62, 0.52 64.52 M95.79 145.06 C67.49 119.58, 38.61 94.41, 1.89 62.13 M101.02 143.83 C66.12 114.68, 31.33 84.84, 3.45 59.92 M100 142.44 C71.21 116.73, 41.64 92.56, 3.51 58.08 M107.25 143.49 C72.91 116.43, 42.52 85.35, 4.79 55.73 M106.15 142.85 C83.82 122.5, 63.31 105.72, 4.39 54.98 M111.75 142.59 C81.03 115.38, 49.85 87.62, 5.72 50.65 M110.65 141.04 C71.27 106.31, 30.29 70.22, 5.56 50.54 M117.86 140.17 C77.91 105.78, 42.05 74.32, 7.07 47.29 M115.2 140.81 C74.52 104.72, 35.68 70.08, 8.87 46.78 M120.81 141.54 C85.42 107.84, 49.27 77.2, 9.71 42.55 M121.06 140.11 C95.29 117.64, 70.95 95.23, 8.79 42.03 M125.62 137.93 C90.2 108.17, 58.47 82.22, 10.89 40.49 M124.41 138.32 C99.28 115.63, 73.75 93.81, 10.3 39.27 M126.71 134.75 C97.81 108.96, 64.37 82.3, 12.66 34.68 M127.35 136.02 C81.05 95.32, 35.33 55.62, 12.59 34.16 M130.54 131.89 C95.22 99.95, 55.4 66.78, 14.98 29.8 M132.05 132.9 C105.39 109.36, 76.68 85.73, 15.72 32.06 M136.44 130.07 C88.48 90.05, 43.28 49.96, 19.29 31.27 M134.94 131.63 C88.77 90.13, 42.9 49.41, 17.62 29.36 M139.54 130.39 C112.39 107.01, 90.63 88.34, 21.98 27.59 M139.15 128.98 C107.12 102.41, 76.4 74.64, 20.94 27.27 M142.89 127.99 C101.02 92.09, 59.04 55.92, 24.69 25.88 M142.01 127.07 C114.19 103.75, 87.72 78.19, 24.83 23.03 M145.52 125.69 C101.01 84.57, 52.89 43.04, 26.98 21.54 M146.57 124.55 C119.38 101.38, 93.52 77.89, 27.05 21.02 M150.15 122.22 C119.31 97.87, 90.27 69.39, 31.42 17.24 M150.76 122.38 C121.65 97.16, 93.24 72.64, 30.45 19.42 M154 117.3 C120.11 94.48, 93.08 67.3, 32 15.83 M151.62 118.49 C125.13 94.32, 95.61 70.31, 32.9 16.57 M153.73 116.41 C125.11 90.34, 100.16 66.87, 34.47 14.66 M153.68 116.14 C121.31 86.65, 88.67 57.2, 36.98 12.99 M157.24 113.28 C114.56 75.89, 76.31 44.6, 41.51 11.19 M156.2 111.9 C128.07 88.96, 100.38 65.15, 40.65 12.41 M157.61 108.02 C130.11 86.96, 103.53 62.49, 44.29 8.63 M158.56 109.43 C120.83 75.97, 83.18 44.21, 44.23 11.07 M161.42 105.54 C132.49 80.47, 99.28 54.02, 51.17 9.58 M161.99 105.41 C138.43 85.39, 116.09 64.42, 48.5 8.88 M165.19 104.43 C137.25 79.08, 108.5 54.82, 52.99 6.28 M163.45 101.94 C130.16 74.55, 98.39 46.84, 53.51 7.26 M163.68 99.28 C138.78 77.3, 114.63 55.37, 58.55 5.59 M165.42 98.53 C131.7 70.26, 97.98 39.75, 57.39 5.64 M166.32 97.62 C135.68 67.66, 101.27 40.22, 61.62 5.28 M167.71 96.53 C126.47 60.3, 85.61 23.76, 60.92 3.35 M168.8 93.57 C136.22 62.86, 98.47 31.89, 67.43 1.64 M168.48 92.37 C131.75 56.64, 92.1 23.91, 65.33 2.81 M170.24 85.46 C147.88 67.01, 125.69 50.29, 70.94 1.16 M168.91 86.7 C133.42 55.36, 96.96 23.21, 70.1 0.68 M169.28 81.41 C134.15 51.3, 97.4 16.57, 77.54 2.04 M170.67 81.58 C151 63.58, 128.98 46.26, 77.09 1.06 M171.46 76.34 C146.84 56.39, 121.47 36.8, 82.64 -0.02 M172.75 79.05 C146.21 55.76, 119.87 33.97, 83.49 0.75 M173.82 73.61 C142.9 43.52, 110.92 19.41, 88.03 1.02 M171.54 72.3 C147.29 51.18, 121.26 28.02, 87.73 -0.33 M173.6 70.58 C145.02 44, 116.48 20.06, 93.07 1.83 M172.9 68.82 C145.46 45.41, 118.67 21.41, 94.01 0.74 M174.03 66.28 C147.13 43.37, 119.49 17.47, 100.48 1.39 M175.42 63.61 C151.01 45.65, 129.31 25.77, 101.59 1.1 M169.24 55.76 C158.66 43.82, 141.56 32.18, 104.28 -2.06 M170.79 57.13 C154.49 41.75, 138.09 26.54, 106.13 0.65 M167.42 48.86 C148.72 30.88, 127.84 13.32, 117.17 4.47 M168.35 47.59 C151.42 34.13, 135.42 18.76, 116.54 3.04 M160.63 35.38 C146.01 25.59, 134.95 13.26, 125.34 7.29 M160.4 37.71 C153.84 29.18, 145.49 21.94, 127.18 7.88" stroke="#228be6" stroke-width="0.5" fill="none"></path><path d="M103.97 2.08 C114.94 3.13, 127.59 8.13, 137.04 14.03 C146.49 19.93, 154.79 28.78, 160.69 37.48 C166.59 46.18, 171.45 56.16, 172.46 66.23 C173.46 76.29, 170.54 88.39, 166.73 97.87 C162.92 107.35, 157.51 115.9, 149.62 123.09 C141.74 130.28, 130.26 137.13, 119.42 141.02 C108.59 144.91, 96.25 146.48, 84.6 146.44 C72.94 146.4, 59.95 144.73, 49.49 140.77 C39.03 136.81, 29.38 130.1, 21.84 122.69 C14.31 115.28, 7.91 105.91, 4.28 96.34 C0.65 86.76, -1.08 75.31, 0.06 65.24 C1.19 55.17, 5.03 44.56, 11.09 35.94 C17.14 27.31, 26.74 19.31, 36.39 13.51 C46.04 7.71, 56.67 2.88, 69 1.14 C81.33 -0.6, 102.98 2.24, 110.39 3.05 C117.81 3.86, 114.1 4.86, 113.5 6 M105.93 2.06 C116.88 3.55, 128.59 10.84, 137.7 17.16 C146.82 23.48, 154.9 31.61, 160.65 39.99 C166.41 48.37, 171.02 57.74, 172.24 67.44 C173.46 77.14, 171.95 88.53, 167.96 98.19 C163.97 107.85, 156.42 118.18, 148.3 125.38 C140.18 132.57, 130.06 137.54, 119.22 141.38 C108.38 145.22, 95.08 148.83, 83.27 148.42 C71.45 148.01, 58.67 143.57, 48.33 138.92 C37.99 134.27, 28.55 128.23, 21.23 120.51 C13.9 112.8, 7.65 102.41, 4.37 92.64 C1.08 82.86, 0.25 71.31, 1.53 61.84 C2.8 52.37, 6.06 44.24, 12.02 35.82 C17.98 27.39, 27.64 17.09, 37.29 11.31 C46.94 5.53, 58.29 2.79, 69.92 1.13 C81.54 -0.53, 100.78 0.91, 107.03 1.33 C113.28 1.75, 107.8 2.41, 107.43 3.67" stroke="#1864ab" stroke-width="1" fill="none"></path></g><g stroke-linecap="round"><g transform="translate(496.5930498297679 132.25499621045924) rotate(0 -25.500772941892137 38.545157457195785)"><path d="M-0.61 0.34 C-9.15 13.3, -42.86 63.62, -51.32 76.62 M1.27 -0.52 C-7.42 12.65, -43.35 64.8, -52.27 77.61" stroke="#c92a2a" stroke-width="1" fill="none"></path></g><g transform="translate(496.5930498297679 132.25499621045924) rotate(0 -25.500772941892137 38.545157457195785)"><path d="M-44.11 48.6 C-48.91 56.89, -48.25 65.12, -53.7 76.04 M-44.91 48.98 C-47.11 57.23, -48.29 63.59, -53.09 77.82" stroke="#c92a2a" stroke-width="1" fill="none"></path></g><g transform="translate(496.5930498297679 132.25499621045924) rotate(0 -25.500772941892137 38.545157457195785)"><path d="M-27.23 60.27 C-36.85 65.06, -41.12 69.88, -53.7 76.04 M-28.03 60.65 C-34.74 65.77, -40.44 69, -53.09 77.82" stroke="#c92a2a" stroke-width="1" fill="none"></path></g></g><g stroke-linecap="round" transform="translate(246.5 10) rotate(0 65.5 54.5)"><path d="M0 0 C0 0, 0 0, 0 0 M0 0 C0 0, 0 0, 0 0 M-0.66 6.55 C1.36 3.75, 3.68 3.14, 5.01 0 M-0.08 6.23 C0.96 4.66, 2.5 3.23, 5.18 0.1 M0.71 10.55 C3.46 9.05, 6.72 3.58, 9.46 -0.17 M0.85 12.42 C3.98 8.3, 6.35 4.95, 10.1 -0.4 M-0.44 17.79 C4.82 16.11, 6.28 9.55, 15.52 1.9 M-0.99 17.87 C3.96 13.22, 9.29 5.39, 16.06 -0.15 M1.26 26.08 C8.77 13.98, 15.5 4.4, 23.18 1.09 M0.28 24.56 C7.18 16.18, 15.67 8.09, 21.62 -0.77 M-0.26 29.54 C7.72 19.85, 15.02 13.55, 27.26 0.09 M-0.35 29.79 C9.79 18.9, 19.64 7.43, 25.89 1.13 M0.41 37.79 C8.18 26.17, 15.96 16.97, 31.77 1.42 M0.43 35.93 C10.95 24.66, 20.74 12.66, 31.95 -0.24 M1.99 44.26 C13.36 30.26, 23.67 16.84, 36.02 -0.27 M-0.37 42.63 C12.2 28.53, 26.1 13.65, 36.67 -0.06 M-1.88 50.77 C10.89 34.84, 23.8 19.94, 43.47 -1.78 M-0.82 48.9 C15.45 30.24, 29.74 13.99, 43.08 -1.12 M1.6 52.66 C14.84 39.76, 24.77 22.37, 48.11 0.98 M-0.31 53.58 C17.2 35.56, 33.15 17.75, 48.38 -0.02 M-1.23 59.18 C11.59 46.16, 25.58 29.97, 51.35 1.37 M0.45 61.27 C13.37 46.12, 24.81 32.34, 52.33 0.67 M1.72 66.6 C19.97 42.77, 39.25 19.58, 56.38 -1.57 M-0.88 66.82 C19.36 43.16, 38.71 20.93, 57.21 0.21 M1.97 74.84 C20.51 49.67, 41.46 27.16, 65.06 1.18 M1.05 73.39 C20.35 49.24, 39.86 26.95, 64.24 -0.52 M0.08 80.12 C22.21 51.35, 49.24 26.84, 68.27 1.09 M0.41 78.57 C23.59 51.38, 47.63 24.7, 69.55 0.86 M1.91 84.04 C21.18 59.6, 43.54 32, 74.81 0.38 M0.02 84.88 C22 59.38, 44.68 35.3, 74.58 -0.05 M0.97 89.99 C24.65 63.32, 46.72 34.5, 77.76 0.44 M-0.72 91.61 C27.21 58.98, 54.56 27.58, 80.04 -0.53 M-1.33 96.24 C32.01 59.72, 65.95 20.17, 83.36 -1.84 M-0.06 97.39 C29.65 63.7, 59.15 29.15, 84.33 -1 M1.92 104.62 C23.03 75.02, 49.54 45.71, 89.4 -1.63 M-0.66 104.22 C35.72 63.31, 72.36 20.13, 89.5 0.84 M1.51 108.34 C26.04 81.21, 48.09 50.08, 94.06 -1.85 M0.25 108.83 C22.18 85.48, 44.51 60.14, 95.68 -0.19 M6.25 110.87 C38.85 72.95, 70.04 32.64, 102.32 -0.77 M4.66 108.94 C41 66.87, 77.87 25.12, 101.01 -0.93 M12.84 108.11 C44.05 70.62, 76.35 34.97, 106.8 0.39 M11.17 108.87 C48.43 66.76, 85.95 23.26, 106.07 -0.12 M16.62 110.02 C34.72 85.05, 53.07 62.75, 110.17 1.79 M15.3 108.61 C53.38 66.04, 91.26 23.06, 111.84 -0.49 M23.23 110.9 C54.56 68.5, 87.06 32.35, 117.37 2.14 M22.75 109.57 C42.78 81.74, 66.68 57.32, 115.47 -0.28 M26.97 109.87 C64.73 69.09, 100.11 24.22, 121.22 -0.73 M27.26 108.43 C60.59 69.2, 93.67 30.84, 121.49 0.83 M31.68 107.17 C68.31 70.25, 100.24 28.94, 128.11 -1.18 M33.12 108.95 C59.39 79.12, 85.03 48.69, 127.04 -0.15 M37.09 108.59 C57.52 86.9, 79.56 62.05, 133.59 0.06 M37.03 109.79 C60.22 83.98, 81.56 59.09, 131.01 -0.29 M43.74 109.82 C73.73 71.6, 105.4 37.53, 130.05 7.35 M42.62 108.31 C73.92 74.12, 105.41 37.61, 131.31 6.15 M47.3 108.82 C69.05 81, 94.88 57.05, 131.47 12.84 M48.31 108.41 C65.56 88.97, 82.13 69.4, 131.16 11.93 M55.52 110.19 C71.16 87.26, 87.56 70.65, 130.64 20.02 M53.81 108.26 C72.09 88.55, 91.09 66.41, 131.89 19.72 M58.51 109.59 C82.29 80.97, 108.44 51.75, 132.64 22.79 M58.01 110.25 C79.77 83.75, 100.95 59.95, 131.94 24.65 M65.04 110.82 C91.82 79.11, 117.68 46.77, 133.19 29.81 M62.81 109.41 C79.64 91.02, 97.11 71.53, 132.87 32.15 M68.15 110.42 C85.85 92.81, 96.66 75.73, 130.91 37.64 M70.28 109.58 C90.52 86.03, 110.08 63.39, 131.06 38.43 M74.85 110.4 C86.83 98.06, 98.75 81.57, 132.95 43.39 M73.94 109.4 C96.94 84.01, 118.26 58.57, 132.99 42.61 M78.27 111.24 C98.94 87.12, 117.59 61.97, 132.65 49.29 M80.48 108.93 C101.37 86.2, 121.66 61.94, 132.42 48.79 M84.11 108.34 C100.94 92.45, 115.66 74.3, 133.77 55.87 M85.75 109.43 C95.68 95.95, 108.51 82.77, 132.19 54.55 M91.44 108.4 C100.82 99.66, 108.08 86.76, 132.83 62.32 M91.17 109.15 C106.85 90.89, 121.17 73.33, 132.17 60.83 M95.16 109.74 C106.72 94.24, 119.16 80.06, 131.39 67.59 M95.67 109.2 C105.89 96.02, 117.38 84.99, 131.01 68.45 M102.81 110.73 C109.08 102.01, 116 93.3, 133.62 75.02 M102.15 109.31 C106.78 101.38, 113.7 94.76, 131.36 74.18 M104.95 110.12 C115.57 97.49, 124.42 85.63, 132.07 81.01 M105.37 109.7 C115.01 99.32, 125.33 88.18, 131.12 80.82 M112.08 107.46 C117.18 99.66, 127.42 93.12, 131.76 84.09 M112.44 108.82 C116.79 103.57, 120.97 97.51, 131.21 85.73 M116.96 111.44 C122.54 103.09, 126.72 101.67, 132.67 93.33 M116.71 109.23 C121.99 103.48, 128.59 96.09, 131.49 92.7 M123.21 108.52 C123.38 107.52, 125.63 103.18, 130.42 97.77 M122.32 109.27 C124.46 106.98, 126.94 103.5, 132.28 98.46 M128.08 109.69 C128.85 107.99, 130.71 105.99, 131.78 104.61 M127.57 109.41 C128.5 108.29, 129.42 107.17, 132.36 104.35" stroke="#fa5252" stroke-width="0.5" fill="none"></path><path d="M1.85 -0.19 C45.55 0.12, 85.81 -0.36, 130.1 -1.65 M0.46 -0.62 C27.05 -1.55, 53.1 -1.7, 130.61 -0.58 M130.75 1.88 C133.09 36.61, 132.01 72.83, 129.11 107.68 M131.65 -0.09 C131.69 38.18, 131.49 75.26, 131.27 108.24 M132.23 108.91 C101.14 111.86, 72.4 109.7, 0.24 107.77 M131.95 108.5 C91.22 109.52, 51.88 110.83, -0.97 109.69 M-0.44 109.35 C-1.53 71.19, 1.61 36.22, 0.34 1.07 M-0.67 108.19 C1.65 69.06, 0.3 27.84, 0.18 -0.79" stroke="#c92a2a" stroke-width="1" fill="none"></path></g><g transform="translate(268 51.5) rotate(0 44 11.5)"><text x="44" y="18" font-family="Virgil, Segoe UI Emoji" font-size="20px" fill="#c92a2a" text-anchor="middle" style="white-space: pre;" direction="ltr">Boot Code</text></g><g stroke-linecap="round"><g transform="translate(336.1814383509575 129.94710031047168) rotate(0 17.979298188930272 43.152229314740964)"><path d="M1.13 0.82 C7.11 15.06, 29.96 70.69, 35.69 85.04 M0.27 0.21 C6.11 14.61, 29.05 71.96, 34.79 86.09" stroke="#c92a2a" stroke-width="1" fill="none"></path></g><g transform="translate(336.1814383509575 129.94710031047168) rotate(0 17.979298188930272 43.152229314740964)"><path d="M16.11 63.93 C18.85 69.84, 27.65 76.92, 36.32 86.94 M15.6 62.89 C17.94 69.2, 22.72 74.32, 34.36 85.39" stroke="#c92a2a" stroke-width="1" fill="none"></path></g><g transform="translate(336.1814383509575 129.94710031047168) rotate(0 17.979298188930272 43.152229314740964)"><path d="M35.15 56.26 C32.45 64.53, 35.83 73.79, 36.32 86.94 M34.64 55.22 C32.86 62.98, 33.57 69.74, 34.36 85.39" stroke="#c92a2a" stroke-width="1" fill="none"></path></g></g><g stroke-linecap="round" transform="translate(556.5 761) rotate(0 65.5 54.5)"><path d="M0.93 -0.82 L129.52 0.2 L131.72 107.14 L-1.12 110.32" stroke="none" stroke-width="0" fill="#ced4da"></path><path d="M1.32 -1.9 C37.77 -0.56, 70.89 -2.91, 131.6 0.76 M-0.58 -0.98 C45.5 -0.59, 90.06 0.17, 131.87 -0.24 M129.76 -1.78 C129.95 29.29, 130.04 57.61, 129.2 110.55 M131.44 0.31 C130.31 25, 129.2 51.39, 130.18 109.84 M132.97 108.24 C85.15 107.72, 38.39 107.95, -1.75 107.24 M130.37 108.46 C85.71 109.29, 39.6 110.27, -0.93 109.02 M1.83 110.84 C-0.02 74.15, 0.56 40.19, 1.28 1.38 M0.91 109.39 C-0.51 73.13, -1.45 39.34, 0.46 -0.31" stroke="#000000" stroke-width="1" fill="none"></path></g><g transform="translate(575.5 802.5) rotate(0 46.5 11.5)"><text x="46.5" y="18" font-family="Virgil, Segoe UI Emoji" font-size="20px" fill="#000000" text-anchor="middle" style="white-space: pre;" direction="ltr">Spin Locks</text></g><g stroke-linecap="round" transform="translate(233.5 356.5) rotate(0 92 75)"><path d="M22.23 25.95 C22.23 25.95, 22.23 25.95, 22.23 25.95 M22.23 25.95 C22.23 25.95, 22.23 25.95, 22.23 25.95 M5.56 49.26 C14.62 37.58, 25.9 29.67, 34.2 17.8 M6.71 49.76 C14.36 41.61, 20.16 34.8, 33.21 18.9 M7.35 56.08 C19.64 44.21, 31.61 31.17, 44.1 10.74 M7.26 55.71 C22.11 39.16, 37.44 22.24, 45.32 12.79 M7.5 61.3 C25.08 42.76, 42.02 21.99, 52.62 6.73 M6.2 61.98 C20.29 47.54, 31.92 32.35, 54.05 7.57 M7.18 68.74 C24.67 47.37, 45.41 22.26, 60.99 8.78 M5.54 70.24 C21.93 51.04, 37.03 32.38, 59.73 7.16 M5.46 77.99 C19.79 61.52, 33.16 44.61, 66.38 7.53 M5.42 77.27 C20.72 60.63, 34.77 42.97, 65.84 6.5 M1.7 84.59 C26.29 58.46, 51.23 27.75, 70.96 2.94 M2.05 84.58 C20.16 64.31, 37.44 43.62, 71.54 4.72 M2.49 89.78 C31.87 53.54, 60.74 22.92, 78.93 4.88 M4.04 89.88 C27.59 60.98, 52.06 32.23, 78.17 3.37 M4.26 94.32 C34.56 60.23, 63.06 28.2, 86.9 0.74 M6.43 94.3 C24.67 72.27, 43.37 51.35, 85 1.56 M8.75 98.93 C37.59 66.1, 66.57 30.34, 90.25 3.08 M7.67 98.52 C28.81 74.56, 47.83 51.93, 91.08 1.16 M8.87 101.27 C29.21 78.11, 53.3 52.19, 96.22 2.76 M8.83 103.27 C29.47 78.1, 49.84 56.23, 95.7 1.51 M9.62 108.53 C45.15 66.11, 83.57 24.17, 101.51 0.78 M10.01 107.43 C29.31 83.57, 48.73 62.74, 101.55 2.82 M10.55 109.56 C33.21 85.92, 56.02 58.53, 105.4 1.41 M12.24 111.81 C37.83 83.18, 61.66 54.63, 105.16 2.87 M14.79 115.49 C41.51 84.65, 68.05 52.08, 109.49 2.86 M13.92 115.27 C50.77 72.47, 88.82 26.99, 110.11 3.23 M16.06 118.61 C42.96 89.36, 67.49 60.33, 114.02 2.62 M17.26 117.19 C49.5 78.55, 84.16 38.09, 114.81 4.15 M21.08 120.5 C56.53 79.47, 89.18 38, 118.21 6.83 M20.2 121.16 C45.84 90, 72.08 60.55, 120.29 5.52 M23.95 123.15 C56.11 83.92, 94.32 41.76, 126.75 6.43 M22.12 123.65 C60.1 78.36, 97.64 34.87, 124.06 4.56 M27.8 125.34 C49.71 101.08, 67.5 75.8, 130.72 5.74 M27.02 123.97 C46.7 99.63, 68.89 75.65, 130.54 6.02 M28.58 129.25 C58.14 95.61, 88.13 60.66, 131.43 9.16 M28.68 128.42 C50.06 101.92, 71.83 77.83, 132.3 8.33 M33.35 131.6 C56.86 99.04, 87.05 66.98, 137.27 9.22 M32.46 131.03 C68.22 90.36, 103.2 49.11, 136.35 9.31 M36.06 134.27 C76.62 87.76, 115.88 42.6, 141.61 11.98 M34.42 133.7 C71.34 90.86, 107.57 50.51, 139.5 13.12 M36.54 135.17 C80.13 89.48, 119.49 46.86, 143.74 13.17 M37.85 134.64 C72.48 99.42, 103.88 61.64, 142.69 13.92 M42.92 139.89 C69.82 104, 99.46 71.75, 145.96 15.82 M41.05 137.62 C76.6 97.3, 111.69 59.03, 145.56 17.07 M46.61 140.52 C66.19 116.03, 87.39 90.83, 149.21 19.84 M45.82 140.31 C73.56 106.71, 100.15 74.26, 149.53 18.32 M47.42 140.83 C87.24 100.26, 121.21 60.02, 154.9 22.95 M49.91 141.05 C79.01 106.83, 108.28 72.53, 153.01 20.27 M51.24 144.64 C83.3 107.66, 111.9 73.54, 157.17 22.03 M52.26 142.76 C85.56 105.58, 118.29 69.67, 157.15 23.25 M56.36 142.91 C84.23 113.11, 109.87 81.88, 159.33 26.47 M56.67 143.6 C77.05 119.5, 98.13 95.98, 159.67 26.3 M62.59 147.39 C93.18 107.95, 124.85 71.17, 162.9 27.86 M60.4 146.2 C86.33 118.05, 108.73 91.04, 163.42 28.38 M66.91 148.25 C89.66 116.56, 116.2 88.53, 164.59 32.03 M65.23 146.82 C90.69 117.95, 116.63 88.44, 164.69 31.98 M69.21 146.91 C99.4 117.73, 125.83 87.64, 166.1 36 M70.68 147.8 C104.92 107.55, 140.9 65.24, 166.51 35.63 M73.34 148.75 C99.2 115.87, 128.05 84.3, 170.4 37.32 M74.45 149.74 C98.48 119.84, 124.55 90.93, 170.38 38.8 M78.1 149.9 C113.14 112.85, 143.09 73.41, 173.55 40.69 M78.87 147.94 C113.16 111.27, 144.24 73.92, 173.49 42.1 M83.04 150.17 C104.1 126.11, 123.6 105.67, 174.97 45.11 M84.13 148.85 C107.56 122.84, 132.19 96.29, 174.44 45.99 M89.38 149.14 C120.7 114.3, 153.05 80.56, 177.19 46.48 M90.67 149.73 C122.75 114.26, 152.83 77.92, 178.44 48.91 M97.17 147.8 C119.3 123.5, 138.52 99.67, 180.92 52.49 M95.72 147.86 C120.79 119.09, 144.99 90, 179.8 51.76 M101.6 149.95 C127.12 120.18, 151.69 90, 182.05 55.75 M101.08 149.5 C123.83 121.69, 146.35 95.05, 180.37 56.6 M105.37 147.52 C131.94 117.41, 159.09 88.25, 181.37 61.63 M106.93 148.74 C126.82 126.83, 146.93 103.36, 180.72 62.04 M112.43 149.5 C134.98 119.74, 159.43 90.83, 181.58 65.42 M111.02 148.05 C137.2 119.47, 160.4 92.57, 182.57 67.97 M113.68 149.77 C138.98 123.79, 162.58 98.86, 183.09 70.95 M115.78 149.64 C133.27 131.04, 148.84 111.37, 184 71.71 M123.25 147.97 C143.94 127.34, 162.91 101.97, 184.32 75.97 M124.03 147.88 C140.78 127.86, 155.99 109.37, 183.24 76.99 M131.11 145.46 C143.02 130.9, 157.5 116.57, 186.06 81.49 M131.07 144.86 C151.89 121.77, 171.99 98.81, 184.43 82.86 M138.56 141.37 C154.81 125.3, 168.96 105.37, 181.32 93.23 M139.57 141.96 C152.45 126.31, 167.67 108.68, 180.94 92.67 M147.99 137.45 C156.6 127.04, 169.92 112.17, 178.11 102.38 M148.77 136.29 C159.01 123.51, 171.87 110.48, 177.54 102.39" stroke="#fd7e14" stroke-width="0.5" fill="none"></path><path d="M52.66 7.52 C62.61 2.37, 77.55 0.85, 90.21 0.45 C102.87 0.05, 117.22 1.15, 128.62 5.13 C140.01 9.11, 150.21 16.79, 158.56 24.32 C166.91 31.85, 174.61 40.72, 178.73 50.28 C182.86 59.85, 184.24 71.6, 183.31 81.74 C182.38 91.87, 179.29 102.08, 173.13 111.1 C166.98 120.12, 156.44 129.73, 146.38 135.85 C136.33 141.98, 124.95 145.76, 112.81 147.88 C100.67 150, 85.91 150.61, 73.54 148.58 C61.18 146.56, 48.81 141.51, 38.63 135.73 C28.44 129.95, 18.67 122.43, 12.41 113.9 C6.16 105.38, 2.42 94.58, 1.1 84.56 C-0.22 74.55, 0.98 63.58, 4.5 53.81 C8.03 44.04, 13.81 33.9, 22.25 25.92 C30.69 17.94, 48.91 9.16, 55.13 5.92 C61.35 2.67, 58.82 5.33, 59.56 6.44 M109.01 -0.07 C120.87 0.92, 133.68 7.9, 143.78 13.84 C153.89 19.78, 163.26 27.06, 169.65 35.57 C176.04 44.08, 180.59 54.54, 182.13 64.88 C183.66 75.23, 182.44 87.7, 178.87 97.62 C175.3 107.55, 168.49 117.12, 160.71 124.43 C152.94 131.75, 143.03 137.37, 132.22 141.53 C121.4 145.68, 108.26 148.78, 95.82 149.36 C83.37 149.95, 69.09 148.88, 57.55 145.05 C46.01 141.23, 35.21 133.64, 26.59 126.41 C17.96 119.18, 10.16 111.27, 5.81 101.66 C1.46 92.04, -0.61 79.11, 0.47 68.71 C1.55 58.31, 6.21 48.26, 12.29 39.25 C18.36 30.24, 27.14 21.03, 36.93 14.63 C46.71 8.23, 59.25 2.85, 70.99 0.85 C82.74 -1.15, 101.35 2.52, 107.42 2.63 C113.5 2.75, 107.77 0.54, 107.46 1.54" stroke="#e67700" stroke-width="1" fill="none"></path></g><g transform="translate(269 413.5) rotate(0 56.5 16)"><text x="56.5" y="25" font-family="Virgil, Segoe UI Emoji" font-size="28px" fill="#e67700" text-anchor="middle" style="white-space: pre;" direction="ltr">Scheduler</text></g><g transform="translate(383.5 281.5) rotate(0 38.5 16)"><text x="38.5" y="25" font-family="Virgil, Segoe UI Emoji" font-size="28px" fill="#364fc7" text-anchor="middle" style="white-space: pre;" direction="ltr">Kernel</text></g><g stroke-linecap="round" transform="translate(222 212.5) rotate(0 197 186)"><path d="M55.15 54.08 C65.09 40.36, 84.34 31, 99.73 22.99 C115.11 14.98, 130.57 9.53, 147.44 6.01 C164.31 2.49, 182.84 1.25, 200.95 1.87 C219.06 2.49, 239.04 5.03, 256.12 9.74 C273.2 14.45, 288.55 21.46, 303.43 30.14 C318.31 38.82, 333.65 49.06, 345.4 61.83 C357.16 74.61, 366.23 91.89, 373.98 106.81 C381.72 121.73, 388.56 135.3, 391.88 151.37 C395.2 167.43, 395.86 186.33, 393.89 203.19 C391.92 220.05, 386.91 236.84, 380.08 252.53 C373.25 268.21, 363.21 284.01, 352.94 297.3 C342.66 310.59, 332.09 322.13, 318.42 332.28 C304.76 342.43, 287.64 351.78, 270.95 358.21 C254.27 364.63, 235.73 368.88, 218.33 370.84 C200.94 372.81, 184.17 372.39, 166.59 370 C149.01 367.6, 128.93 363.32, 112.86 356.47 C96.79 349.63, 83.59 340.23, 70.17 328.93 C56.74 317.63, 42.22 302.77, 32.31 288.68 C22.4 274.59, 16.21 260.38, 10.72 244.4 C5.23 228.42, 0.52 209.66, -0.62 192.82 C-1.77 175.97, -0.65 159.69, 3.83 143.31 C8.31 126.93, 11.28 113.71, 26.27 94.54 C41.26 75.38, 75.75 41.91, 93.79 28.31 C111.83 14.72, 133.01 10.09, 134.52 12.97 M356.22 73.55 C369.11 84.27, 374.73 103.62, 381.19 120.23 C387.64 136.84, 393.34 155.95, 394.97 173.2 C396.6 190.45, 394.92 207.52, 390.99 223.72 C387.06 239.92, 379.5 256.16, 371.39 270.41 C363.28 284.65, 353.69 297.38, 342.33 309.21 C330.97 321.04, 317.97 332.35, 303.23 341.37 C288.48 350.38, 270.82 357.77, 253.87 363.29 C236.92 368.81, 219.84 373.81, 201.53 374.48 C183.22 375.14, 161.82 371.92, 143.99 367.28 C126.17 362.64, 109.72 355.56, 94.59 346.64 C79.46 337.71, 64.75 325.92, 53.2 313.75 C41.66 301.59, 33.33 288.49, 25.31 273.65 C17.29 258.81, 9.22 240.63, 5.09 224.71 C0.95 208.78, -0.41 194.01, 0.5 178.1 C1.41 162.19, 5.21 145.06, 10.56 129.24 C15.9 113.42, 22.75 97.38, 32.58 83.18 C42.42 68.98, 56.06 55.17, 69.58 44.04 C83.09 32.92, 97.66 23.62, 113.67 16.43 C129.68 9.25, 148.17 3.4, 165.63 0.94 C183.08 -1.52, 200.89 -0.81, 218.41 1.67 C235.94 4.15, 254.37 9.2, 270.79 15.84 C287.2 22.48, 303.05 30.92, 316.91 41.49 C330.77 52.05, 347.6 72.86, 353.95 79.21 C360.29 85.56, 356.88 78.44, 355 79.59" stroke="#000000" stroke-width="1" fill="none"></path></g><g stroke-linecap="round"><g transform="translate(158 622.5) rotate(0 55.21700483933091 -49.559400657564424)"><path d="M-1.12 0.69 C17.3 -15.94, 92.83 -83.11, 111.55 -99.81 M0.5 0.01 C18.63 -16.41, 91.5 -81.23, 110.36 -98.18" stroke="#000000" stroke-width="1" fill="none"></path></g><g transform="translate(158 622.5) rotate(0 55.21700483933091 -49.559400657564424)"><path d="M97.34 -72.49 C101.98 -83.2, 107.93 -92.07, 110.97 -99.91 M96.03 -72.37 C100.98 -81.35, 107.54 -92.8, 109.47 -97.89" stroke="#000000" stroke-width="1" fill="none"></path></g><g transform="translate(158 622.5) rotate(0 55.21700483933091 -49.559400657564424)"><path d="M83.66 -87.79 C93.61 -92.44, 104.85 -95.38, 110.97 -99.91 M82.35 -87.68 C92.6 -90.67, 104.42 -96.24, 109.47 -97.89" stroke="#000000" stroke-width="1" fill="none"></path></g></g><g stroke-linecap="round"><g transform="translate(693 627.5) rotate(0 -69.64705895776393 -46.62129336772023)"><path d="M-0.45 0.19 C-23.73 -15.19, -117.55 -76.24, -140.81 -91.55 M1.51 -0.76 C-21.29 -16.56, -114.81 -77.92, -138.52 -93.43" stroke="#000000" stroke-width="1" fill="none"></path></g><g transform="translate(693 627.5) rotate(0 -69.64705895776393 -46.62129336772023)"><path d="M-109.01 -87.89 C-114.65 -88.05, -120.85 -91.24, -136.84 -92.84 M-109.89 -86.12 C-115.23 -89.11, -123.13 -89.5, -138.51 -94.3" stroke="#000000" stroke-width="1" fill="none"></path></g><g transform="translate(693 627.5) rotate(0 -69.64705895776393 -46.62129336772023)"><path d="M-120.26 -70.74 C-123.67 -74.4, -127.54 -81.14, -136.84 -92.84 M-121.14 -68.96 C-123.97 -75.68, -129.38 -79.86, -138.51 -94.3" stroke="#000000" stroke-width="1" fill="none"></path></g></g><g stroke-linecap="round"><g transform="translate(109.83968462714176 991.5019346181857) rotate(0 61.583269033568854 67.04509158990447)" fill-rule="evenodd"><path d="M0.73 -1.7 L-0.02 133.02 L3.15 136.72 L16.59 143.28 L29.86 147.21 L66.36 146.97 L100.6 143.93 L112.72 140.36 L123.76 137.58 L124.01 -0.88 L121.49 -0.1 L115.31 -5.14 L101.86 -10.25 L57.98 -13.54 L30.11 -12.45 L14.18 -7.87 L4.41 -4.97 L0.13 -0.86" stroke="none" stroke-width="0" fill="#ced4da" fill-rule="evenodd"></path><path d="M-0.01 0.5 C-0.1 20.64, 0.37 97.67, 0.38 119.8 C0.4 141.94, -1.08 129.97, 0.08 133.32 C1.24 136.68, 2.8 138.11, 7.35 139.91 C11.9 141.71, 17.68 142.96, 27.39 144.13 C37.09 145.3, 53.06 146.86, 65.58 146.91 C78.09 146.97, 93.14 145.98, 102.49 144.44 C111.83 142.9, 118.01 139.72, 121.63 137.67 C125.25 135.62, 123.71 134.92, 124.21 132.15 C124.71 129.39, 124.78 141.36, 124.64 121.08 C124.49 100.81, 123.69 30.91, 123.31 10.5 C122.94 -9.91, 123.98 1.62, 122.37 -1.37 C120.75 -4.37, 117.63 -6.21, 113.63 -7.46 C109.64 -8.71, 107.34 -8.08, 98.38 -8.9 C89.42 -9.72, 71.22 -11.91, 59.88 -12.38 C48.53 -12.84, 39.29 -12.76, 30.3 -11.68 C21.31 -10.6, 11.02 -7.69, 5.95 -5.9 C0.88 -4.12, 0.94 -1.9, -0.12 -0.98 C-1.18 -0.06, -0.44 -0.44, -0.4 -0.38 M-1.48 -0.28 C-1.8 20.09, -0.72 98.54, -0.58 120.94 C-0.45 143.35, -2.11 130.82, -0.66 134.14 C0.79 137.46, 3.17 139.22, 8.12 140.85 C13.06 142.49, 19.22 143.1, 29.01 143.94 C38.8 144.79, 55.03 146.07, 66.86 145.94 C78.69 145.81, 90.92 144.65, 99.98 143.16 C109.04 141.67, 117.36 138.54, 121.21 136.98 C125.07 135.43, 122.91 136.04, 123.09 133.82 C123.28 131.61, 122.23 144.03, 122.33 123.68 C122.42 103.32, 123.92 32.68, 123.68 11.69 C123.43 -9.3, 122.57 0.55, 120.85 -2.27 C119.12 -5.08, 117.16 -4.13, 113.34 -5.18 C109.52 -6.24, 106.77 -7.33, 97.92 -8.6 C89.07 -9.86, 71.85 -12.39, 60.23 -12.76 C48.61 -13.12, 37.39 -11.99, 28.2 -10.79 C19 -9.59, 9.98 -7.16, 5.05 -5.55 C0.11 -3.93, -0.87 -1.95, -1.43 -1.08 C-2 -0.21, 1.31 -0.66, 1.66 -0.33" stroke="#000000" stroke-width="1" fill="none"></path></g></g><g stroke-linecap="round"><g transform="translate(110.67963499643986 1083.0853417520066) rotate(0 62.32483341453417 6.023455450807205)"><path d="M0.5 -0.03 C1.09 0.9, -0.14 3.68, 2.5 5.53 C5.14 7.38, 10.82 10.01, 16.35 11.05 C21.89 12.09, 27.74 11.47, 35.72 11.77 C43.69 12.07, 53.57 12.76, 64.22 12.85 C74.87 12.94, 90.4 13.44, 99.64 12.3 C108.87 11.17, 115.72 8.02, 119.62 6.04 C123.53 4.06, 122.57 1.36, 123.06 0.43 M-0.69 -1.09 C0.37 0.05, 1.58 5.38, 4.82 7.1 C8.06 8.82, 13.58 8.36, 18.74 9.22 C23.91 10.09, 27.96 11.66, 35.8 12.3 C43.65 12.95, 54.95 13.21, 65.83 13.12 C76.71 13.03, 92.03 13.07, 101.11 11.77 C110.19 10.47, 116.3 7.16, 120.34 5.31 C124.38 3.45, 124.74 1.58, 125.34 0.65" stroke="#000000" stroke-width="1" fill="none"></path></g></g><g stroke-linecap="round"><g transform="translate(109.02538754290197 1036.6509038336335) rotate(0 61.640209301382356 5.963354693412157)"><path d="M-0.03 -0.76 C0.53 -0.09, 0.26 2.76, 3.32 4.51 C6.37 6.26, 13.03 8.55, 18.3 9.76 C23.57 10.96, 27.15 11.16, 34.94 11.74 C42.74 12.31, 54.16 13.26, 65.08 13.21 C76.01 13.17, 91.23 12.96, 100.5 11.46 C109.76 9.96, 116.6 6.43, 120.65 4.22 C124.7 2.02, 124.08 -0.78, 124.78 -1.78 M-1.5 1.46 C-1.1 2.2, -0.86 3.97, 2.4 5.54 C5.66 7.12, 12.68 9.79, 18.05 10.91 C23.42 12.03, 26.44 11.8, 34.63 12.26 C42.81 12.72, 56.45 13.96, 67.14 13.66 C77.83 13.37, 90.24 11.73, 98.76 10.49 C107.28 9.24, 113.98 7.78, 118.24 6.19 C122.5 4.6, 123.39 1.99, 124.31 0.93" stroke="#000000" stroke-width="1" fill="none"></path></g></g><g stroke-linecap="round" transform="translate(107.32931060337353 980.0676626944739) rotate(0 61.399612205429776 12.417609640298792)"><path d="M40.56 0.19 C50.22 -0.84, 63.66 -0.56, 74.17 -0.16 C84.68 0.24, 95.72 0.97, 103.64 2.6 C111.57 4.24, 119.27 7.27, 121.71 9.65 C124.16 12.03, 122.24 14.8, 118.29 16.88 C114.35 18.96, 106.58 20.7, 98.05 22.12 C89.51 23.54, 77.96 25.06, 67.08 25.4 C56.2 25.75, 42.72 25.23, 32.78 24.18 C22.83 23.13, 12.77 21.04, 7.43 19.1 C2.09 17.16, -0.07 14.77, 0.74 12.51 C1.55 10.25, 4.42 7.69, 12.26 5.52 C20.11 3.35, 40.92 0.19, 47.8 -0.52 C54.68 -1.24, 53.31 0.73, 53.56 1.21 M58.31 0.74 C68.7 0.27, 82.03 -0.57, 91.72 0.32 C101.41 1.2, 111.51 3.82, 116.44 6.04 C121.37 8.26, 122.57 11.27, 121.31 13.63 C120.06 15.99, 115.69 18.34, 108.91 20.19 C102.13 22.05, 90.74 24.08, 80.65 24.78 C70.56 25.48, 59.16 25.14, 48.39 24.38 C37.63 23.62, 23.95 21.6, 16.04 20.23 C8.13 18.87, 3.07 18.02, 0.92 16.19 C-1.23 14.36, -1.01 11.57, 3.16 9.26 C7.33 6.95, 16.93 3.81, 25.93 2.32 C34.93 0.82, 51.99 0.58, 57.14 0.29 C62.28 0.01, 56.59 0.64, 56.8 0.61" stroke="none" stroke-width="0" fill="#fff"></path><path d="M36.56 0.06 C45.73 -0.87, 60.43 -0.27, 71.62 0.28 C82.81 0.83, 95.34 1.97, 103.69 3.37 C112.04 4.78, 118.9 6.71, 121.73 8.7 C124.57 10.68, 124.11 13.23, 120.69 15.29 C117.28 17.34, 109.93 19.42, 101.23 21.05 C92.53 22.68, 79.69 24.78, 68.52 25.08 C57.34 25.37, 44.27 24.01, 34.19 22.82 C24.1 21.64, 13.65 19.62, 8.02 17.96 C2.39 16.3, -0.04 14.9, 0.41 12.85 C0.86 10.81, 3.55 7.84, 10.72 5.7 C17.9 3.56, 37.12 0.99, 43.47 0.02 C49.81 -0.94, 48.63 -0.24, 48.79 -0.08 M50.44 0.72 C60.53 0.21, 74.11 0.28, 84.3 1.24 C94.5 2.2, 105.31 4.53, 111.59 6.48 C117.87 8.44, 121.56 10.71, 121.97 12.96 C122.38 15.2, 119.41 18.09, 114.03 19.93 C108.66 21.77, 99.67 23.31, 89.7 23.99 C79.73 24.68, 65.51 24.44, 54.23 24.06 C42.95 23.69, 30.71 22.96, 22.02 21.74 C13.33 20.53, 5.22 18.79, 2.08 16.78 C-1.06 14.77, 0.05 12.07, 3.17 9.68 C6.3 7.28, 12.76 3.92, 20.81 2.42 C28.87 0.92, 46.25 1.26, 51.51 0.68 C56.77 0.11, 52.4 -0.93, 52.38 -1.04" stroke="#000000" stroke-width="1" fill="none"></path></g><g stroke-linecap="round" transform="translate(165.83233754984144 1019.30803468924) rotate(0 8.998701734685199 9.766346086746125)"><path d="M9.94 -0.78 C11.59 -0.34, 14.24 2.24, 15.46 3.86 C16.68 5.49, 17.16 6.77, 17.27 8.96 C17.38 11.14, 17.34 15.22, 16.13 16.97 C14.91 18.71, 11.98 19.38, 9.97 19.44 C7.97 19.5, 5.83 18.31, 4.1 17.32 C2.37 16.34, 0.17 15.47, -0.43 13.54 C-1.03 11.6, -0.38 7.81, 0.47 5.7 C1.32 3.6, 2.83 1.62, 4.66 0.9 C6.49 0.17, 10 1.27, 11.43 1.38 C12.86 1.48, 13.09 1.57, 13.22 1.53 M12.29 1.27 C14.14 1.36, 17.41 1.55, 18.1 3.44 C18.79 5.34, 16.75 10.16, 16.45 12.64 C16.15 15.11, 17.57 17.07, 16.32 18.31 C15.07 19.55, 11.17 20.14, 8.96 20.07 C6.74 19.99, 4.4 19.22, 3.05 17.85 C1.71 16.47, 1.41 13.82, 0.88 11.82 C0.35 9.81, -0.86 7.87, -0.14 5.79 C0.58 3.72, 3.19 0.44, 5.23 -0.63 C7.27 -1.7, 10.97 -0.61, 12.12 -0.63 C13.26 -0.65, 12.06 -1.23, 12.1 -0.74" stroke="none" stroke-width="0" fill="#868e96"></path><path d="M11.67 0.61 C13.46 1.57, 16.12 4.16, 17.15 6.23 C18.18 8.29, 18.42 10.97, 17.86 13.02 C17.3 15.06, 15.52 17.27, 13.79 18.5 C12.07 19.74, 9.48 20.7, 7.48 20.44 C5.49 20.17, 3.01 18.54, 1.82 16.92 C0.64 15.29, 0.56 12.93, 0.38 10.7 C0.2 8.47, -0.11 5.19, 0.75 3.54 C1.62 1.89, 3.39 1.2, 5.57 0.79 C7.74 0.38, 12.48 0.83, 13.83 1.08 C15.18 1.33, 13.98 2.07, 13.69 2.3 M5.76 -0.02 C7.51 -0.68, 10.61 -0.72, 12.56 -0.06 C14.52 0.6, 16.6 2.07, 17.51 3.95 C18.42 5.82, 18.36 9.05, 18.03 11.18 C17.7 13.3, 16.95 15.25, 15.53 16.68 C14.1 18.11, 11.39 19.44, 9.47 19.74 C7.55 20.04, 5.49 19.9, 3.99 18.48 C2.5 17.05, 1.03 13.58, 0.49 11.21 C-0.06 8.84, -0.21 6.2, 0.71 4.27 C1.63 2.34, 4.98 0.05, 6.01 -0.37 C7.04 -0.8, 6.73 1.32, 6.9 1.73" stroke="#000000" stroke-width="1" fill="none"></path></g><g stroke-linecap="round" transform="translate(166.3952791399572 1061.3378448954873) rotate(0 8.998701734685199 9.766346086746125)"><path d="M10.86 0.07 C12.87 0.55, 15.99 2, 17.04 3.88 C18.08 5.76, 17.32 9.26, 17.14 11.35 C16.96 13.44, 17.26 15.12, 15.96 16.41 C14.67 17.7, 11.61 19.09, 9.37 19.1 C7.13 19.11, 3.99 17.7, 2.53 16.47 C1.06 15.24, 0.96 13.58, 0.59 11.73 C0.22 9.88, -0.47 7.23, 0.3 5.36 C1.07 3.49, 2.88 1.1, 5.21 0.51 C7.54 -0.08, 12.64 1.37, 14.29 1.82 C15.95 2.27, 15.39 3.08, 15.12 3.23 M12.43 1.82 C13.76 2, 14.13 1.3, 15.27 3.08 C16.4 4.85, 19.08 10.18, 19.24 12.47 C19.4 14.75, 17.79 15.65, 16.24 16.78 C14.69 17.91, 11.97 19.02, 9.94 19.26 C7.9 19.5, 5.62 19.68, 4.03 18.24 C2.45 16.8, 0.8 12.87, 0.43 10.61 C0.05 8.36, 1.15 6.32, 1.79 4.7 C2.43 3.08, 2.82 1.59, 4.27 0.92 C5.73 0.24, 9.54 0.59, 10.53 0.66 C11.51 0.72, 9.89 1.21, 10.17 1.31" stroke="none" stroke-width="0" fill="#868e96"></path><path d="M7.66 0.18 C9.74 -0.03, 12.86 0.64, 14.67 1.66 C16.49 2.68, 17.97 4.49, 18.55 6.31 C19.14 8.13, 18.93 10.72, 18.18 12.58 C17.43 14.44, 15.9 16.3, 14.05 17.47 C12.2 18.64, 9.15 20.04, 7.09 19.62 C5.03 19.2, 2.99 16.81, 1.67 14.94 C0.35 13.07, -1 10.26, -0.82 8.42 C-0.64 6.59, 1.1 5.28, 2.77 3.92 C4.45 2.57, 7.8 0.98, 9.23 0.29 C10.66 -0.41, 11.25 -0.25, 11.33 -0.23 M8.32 0.16 C10.2 0.16, 12.47 1.37, 13.84 2.69 C15.21 4.02, 16.15 5.96, 16.55 8.09 C16.94 10.22, 17.07 13.55, 16.22 15.48 C15.38 17.42, 13.11 18.93, 11.46 19.7 C9.81 20.46, 7.77 20.81, 6.33 20.07 C4.88 19.32, 3.81 17.32, 2.79 15.24 C1.78 13.17, 0.23 9.78, 0.23 7.6 C0.23 5.43, 1.5 3.35, 2.78 2.18 C4.07 1.01, 6.78 0.84, 7.96 0.59 C9.14 0.34, 9.62 0.74, 9.88 0.67" stroke="#000000" stroke-width="1" fill="none"></path></g><g stroke-linecap="round" transform="translate(167.43551215301602 1107.4591367002802) rotate(357.5021844865888 8.998701734685199 9.766346086746125)"><path d="M4.39 1.53 C5.93 0.52, 8.18 -1.08, 10.17 -0.55 C12.16 -0.02, 15.12 2.93, 16.32 4.73 C17.52 6.52, 17.55 8.42, 17.37 10.2 C17.19 11.98, 16.59 13.8, 15.24 15.4 C13.88 17.01, 11.09 19.52, 9.24 19.84 C7.39 20.15, 5.58 18.53, 4.15 17.28 C2.71 16.02, 1.24 14.03, 0.62 12.32 C0.01 10.62, -0.66 8.95, 0.47 7.03 C1.59 5.11, 5.84 1.98, 7.37 0.8 C8.91 -0.38, 9.64 -0.24, 9.69 -0.06 M14.31 -0.33 C15.72 0.53, 14.99 4.78, 15.78 7.11 C16.58 9.43, 19.41 11.73, 19.09 13.61 C18.77 15.49, 15.74 17.33, 13.86 18.39 C11.98 19.46, 9.57 20.26, 7.8 19.98 C6.03 19.71, 4.76 18.22, 3.25 16.76 C1.74 15.31, -0.91 13.57, -1.26 11.24 C-1.61 8.9, -0.23 4.78, 1.15 2.76 C2.52 0.74, 4.98 -0.33, 6.98 -0.88 C8.98 -1.42, 12.06 -0.96, 13.15 -0.48 C14.24 -0.01, 13.65 1.81, 13.53 1.97" stroke="none" stroke-width="0" fill="#868e96"></path><path d="M5.19 1.78 C6.97 1, 9.57 0.74, 11.33 1.27 C13.09 1.8, 14.81 3.26, 15.75 4.95 C16.7 6.64, 17.23 9.47, 17.01 11.42 C16.8 13.37, 15.6 15.34, 14.46 16.66 C13.33 17.97, 12.1 19.26, 10.22 19.32 C8.34 19.38, 4.98 18.09, 3.18 17.01 C1.39 15.92, -0.28 14.67, -0.55 12.79 C-0.81 10.92, 0.39 7.7, 1.58 5.78 C2.77 3.86, 5.68 2.09, 6.59 1.28 C7.5 0.46, 7.14 0.86, 7.04 0.87 M5.84 -0.11 C7.68 -1.09, 10.55 -1.46, 12.39 -0.78 C14.23 -0.09, 15.81 2.13, 16.9 3.99 C17.99 5.85, 19.11 8.17, 18.92 10.39 C18.74 12.6, 17.24 15.51, 15.8 17.29 C14.36 19.06, 12.29 20.97, 10.3 21.01 C8.3 21.06, 5.61 19.14, 3.81 17.55 C2.01 15.95, 0 13.66, -0.5 11.45 C-1 9.24, -0.29 5.9, 0.84 4.28 C1.96 2.67, 5.38 2.22, 6.28 1.76 C7.18 1.31, 6.41 1.55, 6.23 1.57" stroke="#000000" stroke-width="1" fill="none"></path></g><g transform="translate(103 1142.0719033904886) rotate(0 68 16)"><text x="68" y="25" font-family="Virgil, Segoe UI Emoji" font-size="28.020120732068097px" fill="#000000" text-anchor="middle" style="white-space: pre;" direction="ltr">File System</text></g><g stroke-linecap="round"><g transform="translate(170.64705895776387 863.1212933677202) rotate(0 -0.7244875442702323 56.94175053161575)"><path d="M-1.07 -0.18 C-1.48 19, -1.9 96.36, -2.02 115.2 M0.57 -1.31 C0.48 17.55, 0.14 94.56, 0.15 113.7" stroke="#000000" stroke-width="1" fill="none"></path></g><g transform="translate(170.64705895776387 863.1212933677202) rotate(0 -0.7244875442702323 56.94175053161575)"><path d="M-10.34 83.78 C-4.56 93.8, -5.04 105.63, 1.83 112.17 M-9.34 86.35 C-8.32 91.32, -6.3 99.6, -0.47 114.28" stroke="#000000" stroke-width="1" fill="none"></path></g><g transform="translate(170.64705895776387 863.1212933677202) rotate(0 -0.7244875442702323 56.94175053161575)"><path d="M10.19 83.83 C8.99 93.65, 1.54 105.46, 1.83 112.17 M11.18 86.39 C7.35 91.18, 4.51 99.45, -0.47 114.28" stroke="#000000" stroke-width="1" fill="none"></path></g></g><g stroke-linecap="round" transform="translate(369.5 1009) rotate(0 65.5 54.5)"><path d="M-0.47 0.18 L129.11 0.15 L129.68 107.05 L-1.43 108.94" stroke="none" stroke-width="0" fill="#ced4da"></path><path d="M1.46 0.56 C44.47 -0.89, 88.03 -1.53, 129.04 1.44 M0.44 0.5 C26.19 -0.14, 54.24 0.6, 131.92 0.62 M129.22 -0.23 C128.55 39.35, 131.64 75.65, 131.21 108.14 M131.04 -0.99 C130.48 41.96, 130.84 84.08, 131.65 109.87 M131.4 109.57 C97.87 111.28, 67.1 110.67, -0.13 110.69 M131.88 108.42 C90.84 109.35, 48.56 109.92, 0.21 109.24 M0.14 108.99 C-0.43 67.36, 2.62 29.71, 1.2 -0.2 M0.18 108.26 C1.54 67.24, 1.46 25.02, -0.43 -0.87" stroke="#000000" stroke-width="1" fill="none"></path></g><g transform="translate(415 1050.5) rotate(0 20 11.5)"><text x="20" y="18" font-family="Virgil, Segoe UI Emoji" font-size="20px" fill="#000000" text-anchor="middle" style="white-space: pre;" direction="ltr">IPv4</text></g><g stroke-linecap="round" transform="translate(466.5 1060) rotate(0 65.5 54.5)"><path d="M-1.95 -1.43 L130.94 -1.91 L129.79 110.9 L-0.99 109.34" stroke="none" stroke-width="0" fill="#ced4da"></path><path d="M-1.56 -1.96 C42.39 -1.61, 81.96 -0.75, 131.88 0.99 M-0.07 0.92 C29.61 0.1, 57.01 0.6, 130.11 -0.12 M131.17 0.21 C131.01 26.82, 130.41 51.48, 131.07 107.01 M131.01 0.65 C131.79 35.28, 130.34 72.15, 131.2 109.29 M131.95 108.87 C97.96 109.9, 59.74 110.36, 1.76 107.84 M131.44 109.21 C80.24 109.24, 28.14 107.65, 0.07 108.99 M0.8 110.2 C0.67 85.47, -0.52 59.48, 0.36 -1.47 M0.06 108.57 C-1.16 67.54, -0.2 25.61, 0.08 -0.66" stroke="#000000" stroke-width="1" fill="none"></path></g><g transform="translate(512 1101.5) rotate(0 20 11.5)"><text x="20" y="18" font-family="Virgil, Segoe UI Emoji" font-size="20px" fill="#000000" text-anchor="middle" style="white-space: pre;" direction="ltr">IPv6</text></g><g stroke-linecap="round" transform="translate(328 982.5) rotate(0 142 117.5)"><path d="M-1.05 -0.48 C106.26 0.94, 204.59 6.11, 283.27 1.63 M1.47 -1.12 C83.94 3.96, 166.45 4.7, 284.34 -1.38 M282.14 -2.04 C285.21 78.28, 286.72 153.09, 287.19 233.11 M284.6 -0.03 C280.17 69.55, 280.54 136.96, 285.57 235.81 M285.16 236.52 C191.51 233.66, 91.1 238.52, -1.5 235.69 M285.24 235.05 C174.86 234.22, 67.34 236.35, 0.31 236.44 M-1.68 236.3 C3 176.08, 5.19 121.54, -1.45 -1 M-1.31 235.33 C1.38 164.64, 1.96 96.4, -0.78 -0.86" stroke="#000000" stroke-width="1" fill="none"></path></g><g stroke-linecap="round"><g transform="translate(465.7372204879225 981.1575262737472) rotate(0 -24.22211248633323 -198.94891463802952)"><path d="M-0.06 -0.9 C-8.06 -67.24, -39.76 -332.74, -47.66 -399.14 M-1.56 1.24 C-9.7 -64.8, -40.66 -331.09, -48.38 -397.65" stroke="#000000" stroke-width="1" fill="none"></path></g><g transform="translate(465.7372204879225 981.1575262737472) rotate(0 -24.22211248633323 -198.94891463802952)"><path d="M-36.44 -370.11 C-39.21 -378.5, -43.85 -389.46, -49.29 -396.58 M-33.96 -371.13 C-38.88 -378.68, -43.31 -387.93, -48.84 -398.62" stroke="#000000" stroke-width="1" fill="none"></path></g><g transform="translate(465.7372204879225 981.1575262737472) rotate(0 -24.22211248633323 -198.94891463802952)"><path d="M-56.82 -367.74 C-52.95 -376.88, -50.97 -388.62, -49.29 -396.58 M-54.35 -368.76 C-52.73 -376.95, -50.6 -386.96, -48.84 -398.62" stroke="#000000" stroke-width="1" fill="none"></path></g></g><g transform="translate(344.5 1177) rotate(0 67.5 16)"><text x="67.5" y="25" font-family="Virgil, Segoe UI Emoji" font-size="28px" fill="#000000" text-anchor="middle" style="white-space: pre;" direction="ltr">Networking</text></g></svg>